<svg height="312.5" width="312.5"
    style="width: 312.5px; height: 312.5px; position: absolute; top: 50%; left: 50%; transform: translate(-50%, -50%) scale(1); z-index: 0; cursor: pointer;">
    <defs id="SvgjsDefs1001"></defs>
    <g id="SvgjsG1007" featurekey="rootContainer"
        transform="matrix(6.25,0,0,6.25,0.31249597668647766,0)" fill="#ffffff">
        <path xmlns="http://www.w3.org/2000/svg"
            d="M24.95 0a25 25 0 1 0 25 25 25 25 0 0 0-25-25zm0 46.91a22 22 0 1 1 22-22 22 22 0 0 1-22 21.99z"></path>
        <path xmlns="http://www.w3.org/2000/svg"
            d="M24.95 3.65a21.3 21.3 0 1 0 21.3 21.3 21.33 21.33 0 0 0-21.3-21.3z"></path>
    </g>
    <g id="SvgjsG1008" featurekey="symbolFeature-0"
        transform="matrix(1.2820483476754865,0,0,1.2820483476754865,118.00038461452257,98.00057690286641)"
        fill="#111111">
        <title xmlns="http://www.w3.org/2000/svg">cart-full</title>
        <desc xmlns="http://www.w3.org/2000/svg">Created with Sketch.</desc>
        <g xmlns="http://www.w3.org/2000/svg" stroke="none" stroke-width="1" fill="none"
            fill-rule="evenodd" xmlns:sketch="http://www.bohemiancoding.com/sketch/ns"
            sketch:type="MSPage">
            <g sketch:type="MSArtboardGroup" fill="#111111">
                <path
                    d="M16.0527,2.4668 C16.2297,3.8678 16.8537,9.4648 16.0307,12.7568 C15.8957,13.2928 16.2217,13.8358 16.7577,13.9698 C16.8387,13.9898 16.9207,13.9998 17.0007,13.9998 C17.4487,13.9998 17.8567,13.6958 17.9697,13.2418 C18.4807,11.2008 18.4997,8.4878 18.3867,6.2168 C19.9647,9.7688 19.9997,12.9588 19.9997,13.0008 C20.0017,13.5518 20.4487,13.9988 20.9997,13.9988 L21.0017,13.9988 C21.5537,13.9978 21.9997,13.5508 21.9997,12.9998 C21.9997,12.7958 21.9607,8.9518 19.9247,4.7858 C23.9087,7.9968 23.9977,12.7578 23.9997,13.0018 C24.0007,13.5528 24.4487,13.9998 24.9997,13.9998 C25.5527,13.9998 25.9997,13.5518 25.9997,12.9998 C25.9997,12.9138 25.8907,4.4378 17.5757,1.1618 L16.7067,0.2928 C16.3167,-0.0982 15.6837,-0.0982 15.2927,0.2928 C14.9027,0.6828 14.9027,1.3158 15.2927,1.7068 L16.0527,2.4668 Z M50.9997,9.9998 L55.9997,9.9998 L55.9997,12.9998 C55.9997,13.5518 56.4477,13.9998 56.9997,13.9998 C57.5527,13.9998 57.9997,13.5518 57.9997,12.9998 L57.9997,9.9998 C57.9997,8.8978 57.1037,8.0008 55.9997,7.9998 L50.9997,7.9998 C50.4477,7.9998 49.9997,8.4478 49.9997,8.9998 C49.9997,9.5518 50.4477,9.9998 50.9997,9.9998 L50.9997,9.9998 Z M28.9997,13.9998 C29.5527,13.9998 29.9997,13.5518 29.9997,12.9998 L29.9997,5.9998 L41.9997,5.9998 L41.9997,12.9998 C41.9997,13.5518 42.4477,13.9998 42.9997,13.9998 C43.5527,13.9998 43.9997,13.5518 43.9997,12.9998 L43.9997,5.9998 L45.9997,5.9998 L45.9997,12.9998 C45.9997,13.5518 46.4477,13.9998 46.9997,13.9998 C47.5527,13.9998 47.9997,13.5518 47.9997,12.9998 L47.9997,5.9998 C47.9997,4.8978 47.1037,4.0008 45.9997,3.9998 L29.9987,3.9998 C28.8967,4.0008 27.9997,4.8978 27.9997,5.9998 L27.9997,12.9998 C27.9997,13.5518 28.4477,13.9998 28.9997,13.9998 L28.9997,13.9998 Z M7.9997,28.9998 C7.9997,28.4478 7.5527,27.9998 6.9997,27.9998 L0.9997,27.9998 C0.4477,27.9998 -0.0003,28.4478 -0.0003,28.9998 C-0.0003,29.5518 0.4477,29.9998 0.9997,29.9998 L6.9997,29.9998 C7.5527,29.9998 7.9997,29.5518 7.9997,28.9998 L7.9997,28.9998 Z M3.9997,34.9998 C3.9997,35.5518 4.4477,35.9998 4.9997,35.9998 L8.4997,35.9998 C9.0527,35.9998 9.4997,35.5518 9.4997,34.9998 C9.4997,34.4478 9.0527,33.9998 8.4997,33.9998 L4.9997,33.9998 C4.4477,33.9998 3.9997,34.4478 3.9997,34.9998 L3.9997,34.9998 Z M9.9997,39.9998 L2.9997,39.9998 C2.4477,39.9998 1.9997,40.4478 1.9997,40.9998 C1.9997,41.5518 2.4477,41.9998 2.9997,41.9998 L9.9997,41.9998 C10.5527,41.9998 10.9997,41.5518 10.9997,40.9998 C10.9997,40.4478 10.5527,39.9998 9.9997,39.9998 L9.9997,39.9998 Z M24.7047,27.9998 L25.3047,33.9998 L33.9997,33.9998 L33.9997,27.9998 L24.7047,27.9998 Z M35.9997,27.9998 L35.9997,33.9998 L44.6957,33.9998 L45.2947,27.9998 L35.9997,27.9998 Z M15.7497,25.9998 L22.4947,25.9998 L22.0047,21.0998 C21.9497,20.5498 22.3507,20.0598 22.9007,20.0048 C23.4567,19.9488 23.9407,20.3508 23.9947,20.9008 L24.5047,25.9998 L33.9997,25.9998 L33.9997,20.9998 C33.9997,20.4478 34.4477,19.9998 34.9997,19.9998 C35.5527,19.9998 35.9997,20.4478 35.9997,20.9998 L35.9997,25.9998 L45.4947,25.9998 L46.0047,20.9008 C46.0607,20.3508 46.5437,19.9478 47.0997,20.0048 C47.6497,20.0598 48.0497,20.5498 47.9947,21.0998 L47.5047,25.9998 L52.9997,25.9998 C53.5527,25.9998 53.9997,26.4478 53.9997,26.9998 C53.9997,27.5518 53.5527,27.9998 52.9997,27.9998 L47.3047,27.9998 L46.7047,33.9998 L51.4997,33.9998 C52.0527,33.9998 52.4997,34.4478 52.4997,34.9998 C52.4997,35.5518 52.0527,35.9998 51.4997,35.9998 L46.5047,35.9998 L45.9947,41.0998 C45.9437,41.6148 45.5087,41.9998 45.0007,41.9998 C44.9677,41.9998 44.9347,41.9988 44.9007,41.9948 C44.3507,41.9398 43.9497,41.4498 44.0047,40.9008 L44.4947,35.9998 L35.9997,35.9998 L35.9997,40.9998 C35.9997,41.5518 35.5527,41.9998 34.9997,41.9998 C34.4477,41.9998 33.9997,41.5518 33.9997,40.9998 L33.9997,35.9998 L25.5047,35.9998 L25.9947,40.9008 C26.0497,41.4498 25.6497,41.9398 25.0997,41.9948 C25.0657,41.9988 25.0317,41.9998 24.9987,41.9998 C24.4907,41.9998 24.0567,41.6148 24.0047,41.0998 L23.4947,35.9998 L16.9997,35.9998 C16.4477,35.9998 15.9997,35.5518 15.9997,34.9998 C15.9997,34.4478 16.4477,33.9998 16.9997,33.9998 L23.2947,33.9998 L22.6957,27.9998 L15.7497,27.9998 C15.1977,27.9998 14.7497,27.5518 14.7497,26.9998 C14.7497,26.4478 15.1977,25.9998 15.7497,25.9998 L15.7497,25.9998 Z M50.9997,47.9998 L22.9997,47.9998 C21.4987,47.9998 20.4057,49.9538 20.1057,50.5528 C19.8587,51.0468 20.0587,51.6458 20.5517,51.8928 C20.6957,51.9658 20.8487,51.9998 20.9987,51.9998 C21.3647,51.9998 21.7177,51.7978 21.8937,51.4488 C22.2247,50.7918 22.7947,50.0718 22.9997,49.9998 L50.9997,49.9998 C51.5527,49.9998 51.9997,49.5518 51.9997,48.9998 C51.9997,48.4478 51.5527,47.9998 50.9997,47.9998 L50.9997,47.9998 Z M49.9997,55.9998 C49.9997,54.8968 49.1027,53.9998 47.9997,53.9998 C46.8977,53.9998 45.9997,54.8968 45.9997,55.9998 C45.9997,57.1028 46.8977,57.9998 47.9997,57.9998 C49.1027,57.9998 49.9997,57.1028 49.9997,55.9998 L49.9997,55.9998 Z M51.9997,55.9998 C51.9997,58.2058 50.2057,59.9998 47.9997,59.9998 C45.7937,59.9998 43.9997,58.2058 43.9997,55.9998 C43.9997,53.7948 45.7937,51.9998 47.9997,51.9998 C50.2057,51.9998 51.9997,53.7948 51.9997,55.9998 L51.9997,55.9998 Z M19.9997,55.9998 C19.9997,54.8968 19.1027,53.9998 17.9997,53.9998 C16.8977,53.9998 15.9997,54.8968 15.9997,55.9998 C15.9997,57.1028 16.8977,57.9998 17.9997,57.9998 C19.1027,57.9998 19.9997,57.1028 19.9997,55.9998 L19.9997,55.9998 Z M21.9997,55.9998 C21.9997,58.2058 20.2057,59.9998 17.9997,59.9998 C15.7937,59.9998 13.9997,58.2058 13.9997,55.9998 C13.9997,53.7948 15.7937,51.9998 17.9997,51.9998 C20.2057,51.9998 21.9997,53.7948 21.9997,55.9998 L21.9997,55.9998 Z M59.9837,17.1788 C59.8207,18.0798 55.9597,39.2838 54.9487,42.3168 C53.9777,45.2298 51.2867,45.9998 49.9997,45.9998 L18.9997,45.9998 C15.4227,45.9998 14.1567,43.5508 14.1057,43.4468 C14.0617,43.3598 14.0317,43.2658 14.0147,43.1688 L8.0287,8.2518 C7.7927,7.6028 6.9977,5.9998 5.9997,5.9998 L2.9997,5.9998 C2.5497,6.0118 1.9997,6.1948 1.9997,6.9998 C1.9997,7.8048 2.5497,7.9878 3.0117,7.9998 L4.9997,7.9998 C5.5527,7.9998 5.9997,8.4478 5.9997,8.9998 C5.9997,9.5518 5.5527,9.9998 4.9997,9.9998 L2.9997,9.9998 C1.7937,9.9998 -0.0003,9.2008 -0.0003,6.9998 C-0.0003,4.7988 1.7937,3.9998 2.9997,3.9998 L5.9997,3.9998 C8.6447,3.9998 9.8237,7.3068 9.9487,7.6838 C9.9647,7.7318 9.9777,7.7808 9.9857,7.8308 L15.9537,42.6488 C16.1757,42.9718 17.0317,43.9998 18.9997,43.9998 L49.9997,43.9998 C50.0867,43.9988 52.2997,43.9388 53.0517,41.6838 C53.7857,39.4788 56.3637,25.8568 57.8007,17.9998 L13.9997,17.9998 C13.4477,17.9998 12.9997,17.5518 12.9997,16.9998 C12.9997,16.4478 13.4477,15.9998 13.9997,15.9998 L58.9997,15.9998 C59.2967,15.9998 59.5777,16.1318 59.7677,16.3598 C59.9577,16.5868 60.0367,16.8868 59.9837,17.1788 L59.9837,17.1788 Z"
                    sketch:type="MSShapeGroup"></path>
            </g>
        </g>
    </g>
    <g id="SvgjsG1009" featurekey="nameFeature-0"
        transform="matrix(0.6603275118058128,0,0,0.6603275118058128,56.23771799241333,188.39672614141665)"
        fill="#111111">
        <path
            d="M31.96 33.12 l4.52 -23.12 l8.04 0 l-6.64 30 l-11.56 0 l-4.08 -18.8 l-0.32 0 l-4.36 18.8 l-11.44 0 l-6.48 -30 l8.12 0 l4.32 23.12 l0.28 0 l5.64 -23.12 l8.32 0 l5.36 23.12 l0.28 0 z M53.32000000000001 10 l0 12.92 l0.28 0 c0.52 -1.68 1.28 -2.72 2.32 -3.32 c1.04 -0.64 2.36 -0.84 3.96 -0.84 c4.64 0 6.76 2.2 6.76 6.72 l0 14.52 l-6.88 0 l0 -12.92 c-0.04 -2.04 -0.6 -3.04 -2.84 -3.04 c-3.08 0 -3.6 1.84 -3.6 4.4 l0 11.56 l-6.88 0 l0 -30 l6.88 0 z M80.76 18.76 c8.8 0 10.52 1.88 10.52 10.76 c0 8.64 -1.8 10.72 -10.52 10.72 c-8.6 0 -10.48 -2.32 -10.48 -10.72 c0 -8.6 1.72 -10.76 10.48 -10.76 z M80.88 24.04 c-3.32 0 -3.72 0.92 -3.72 5.48 s0.4 5.44 3.72 5.44 c3.2 0 3.52 -0.88 3.52 -5.44 s-0.32 -5.48 -3.52 -5.48 z M101.88 10 l0 30 l-6.88 0 l0 -30 l6.88 0 z M112.28 26.880000000000003 l6.76 0 c0 -3.12 -1.16 -3.32 -3.48 -3.32 c-2.44 0 -3.2 0.56 -3.28 3.32 z M119.16 33 l6.76 0 c0 3.16 -1.04 4.96 -2.84 6 c-1.8 1 -4.36 1.24 -7.4 1.24 c-8.28 0 -10.28 -2.88 -10.28 -10.72 c0 -8.08 1.84 -10.76 10.28 -10.76 c7.88 0 10.24 2.2 10.24 10.76 l0 1.16 l-13.64 0 c0 3.68 0.56 4.76 3.4 4.76 c2.12 0 3.48 -0.24 3.48 -2.44 z M148 24.96 l-6.48 0 c-0.12 -0.88 -0.56 -1.32 -1.08 -1.56 c-0.52 -0.2 -1.16 -0.2 -1.72 -0.2 c-3.6 0 -3.6 0.44 -3.6 1.68 c0 1.04 0.08 1.76 3.6 1.84 c7.12 0.16 10.28 0.56 10.28 6.44 c0 6.16 -4.76 7.08 -10.28 7.08 c-5.44 0 -10.28 0.12 -10.28 -6.8 l6.88 0 c0 2.36 1.72 2.36 3.4 2.36 c3.12 0 3.6 -0.2 3.6 -1.84 c0 -2.08 -1.2 -2.08 -3.6 -2.08 c-8.72 0 -10.28 -1.96 -10.28 -6.24 c0 -6.76 4.44 -6.88 10.28 -6.88 c3.84 0 9.28 0.04 9.28 5.2 l0 1 z M161.8 31.32 c-1.68 0 -3 0.28 -3 2.2 c0 2.28 1.96 2.28 3 2.28 c2.88 0 3.76 -0.36 3.76 -2.56 c0 -1.76 -1.52 -1.92 -3.76 -1.92 z M165.56 40 l0.24 -3.12 l-0.24 0 c-0.52 2.88 -3.64 3.36 -6.04 3.36 c-4.8 0 -7.6 -1.16 -7.6 -6.52 c0 -5.04 2.64 -6.6 7.6 -6.6 c1.96 0 4.96 -0.04 5.72 2.36 l0.32 0 l0 -3.32 c0 -1.96 -0.12 -3.2 -3.12 -3.2 c-1.72 0 -2.8 0.4 -2.8 2.28 l-6.88 0 c0 -6.52 4.76 -6.48 9.68 -6.48 c7.04 0 10 0.88 10 8.12 l0 13.12 l-6.88 0 z M183.88 10 l0 30 l-6.88 0 l0 -30 l6.88 0 z M194.28 26.880000000000003 l6.76 0 c0 -3.12 -1.16 -3.32 -3.48 -3.32 c-2.44 0 -3.2 0.56 -3.28 3.32 z M201.16 33 l6.76 0 c0 3.16 -1.04 4.96 -2.84 6 c-1.8 1 -4.36 1.24 -7.4 1.24 c-8.28 0 -10.28 -2.88 -10.28 -10.72 c0 -8.08 1.84 -10.76 10.28 -10.76 c7.88 0 10.24 2.2 10.24 10.76 l0 1.16 l-13.64 0 c0 3.68 0.56 4.76 3.4 4.76 c2.12 0 3.48 -0.24 3.48 -2.44 z M219.72 10 l0 11.28 l2.4 0 l7.72 -11.28 l9.68 0 l-10.56 14.72 l11.44 15.28 l-9.92 0 l-8.36 -11.76 l-2.4 0 l0 11.76 l-8 0 l0 -30 l8 0 z M250.76000000000002 31.32 c-1.68 0 -3 0.28 -3 2.2 c0 2.28 1.96 2.28 3 2.28 c2.88 0 3.76 -0.36 3.76 -2.56 c0 -1.76 -1.52 -1.92 -3.76 -1.92 z M254.52 40 l0.24 -3.12 l-0.24 0 c-0.52 2.88 -3.64 3.36 -6.04 3.36 c-4.8 0 -7.6 -1.16 -7.6 -6.52 c0 -5.04 2.64 -6.6 7.6 -6.6 c1.96 0 4.96 -0.04 5.72 2.36 l0.32 0 l0 -3.32 c0 -1.96 -0.12 -3.2 -3.12 -3.2 c-1.72 0 -2.8 0.4 -2.8 2.28 l-6.88 0 c0 -6.52 4.76 -6.48 9.68 -6.48 c7.04 0 10 0.88 10 8.12 l0 13.12 l-6.88 0 z M277 28.16 l0 -1 c0 -1.48 0.08 -3.12 -1.8 -3.12 c-2.08 0 -2.56 1.64 -2.56 3.36 l0 12.6 l-6.88 0 l0 -21 l6.68 0 l0 3.08 l0.28 0 c0.48 -1.2 1.16 -2.04 2.04 -2.56 s1.96 -0.76 3.24 -0.76 c4.8 0 5.2 3.92 5.2 7.76 l0 1.64 l-6.2 0 z M301.6 19 l0 5.04 l-7.96 0 l0 9.4 c0.04 1.24 0.28 1.76 1.56 1.76 c1.8 0 1.72 -1.28 1.8 -2.72 l0.04 -1.12 l5.48 0 l0 1.88 c0 5.72 -2.12 7 -7.72 7 c-4.4 0 -8.04 -0.56 -8.04 -5.84 l0 -10.36 l-2.56 0 l0 -5.04 l2.56 0 l0 -4.44 l6.88 0 l0 4.44 l7.96 0 z"></path>
    </g>
</svg>